HIERARCHY
ROOT Hips
{
 OFFSET 0.000000 0.000000 0.000000
 CHANNELS 6 Xposition Yposition Zposition Yrotation Xrotation Zrotation
 JOINT Chest
 {
  OFFSET 0.000000 9.588913 -0.003946
  CHANNELS 3 Yrotation Xrotation Zrotation
  JOINT Chest2
  {
   OFFSET 0.000000 9.541882 0.008053
   CHANNELS 3 Yrotation Xrotation Zrotation
   JOINT Chest3
   {
    OFFSET 0.000000 9.501360 0.000000
    CHANNELS 3 Yrotation Xrotation Zrotation
    JOINT Chest4
    {
     OFFSET 0.000000 9.491660 0.000000
     CHANNELS 3 Yrotation Xrotation Zrotation
     JOINT Neck
     {
      OFFSET 0.000000 14.331917 0.000000
      CHANNELS 3 Yrotation Xrotation Zrotation
      JOINT Head
      {
       OFFSET 0.000000 8.884799 0.017034
       CHANNELS 3 Yrotation Xrotation Zrotation
       End Site
       {
        OFFSET 0.000000 16.896195 0.008993
       }
      }
     }
     JOINT RightCollar
     {
      OFFSET -2.923010 9.499495 0.000000
      CHANNELS 3 Yrotation Xrotation Zrotation
      JOINT RightShoulder
      {
       OFFSET -13.795216 0.000000 0.000000
       CHANNELS 3 Yrotation Xrotation Zrotation
       JOINT RightElbow
       {
        OFFSET -30.272209 0.000000 0.000000
        CHANNELS 3 Yrotation Xrotation Zrotation
        JOINT RightWrist
        {
         OFFSET -24.478199 0.000000 0.000000
         CHANNELS 3 Yrotation Xrotation Zrotation
         End Site
         {
          OFFSET -18.090752 0.000000 0.000000
         }
        }
       }
      }
     }
     JOINT LeftCollar
     {
      OFFSET 2.923010 9.499495 0.000000
      CHANNELS 3 Yrotation Xrotation Zrotation
      JOINT LeftShoulder
      {
       OFFSET 13.795216 0.000000 0.000000
       CHANNELS 3 Yrotation Xrotation Zrotation
       JOINT LeftElbow
       {
        OFFSET 30.272209 0.000000 0.000000
        CHANNELS 3 Yrotation Xrotation Zrotation
        JOINT LeftWrist
        {
         OFFSET 24.478199 0.000000 0.000000
         CHANNELS 3 Yrotation Xrotation Zrotation
         End Site
         {
          OFFSET 18.090752 0.000000 0.000000
         }
        }
       }
      }
     }
    }
   }
  }
 }
 JOINT RightHip
 {
  OFFSET -7.826875 0.019532 0.001973
  CHANNELS 3 Yrotation Xrotation Zrotation
  JOINT RightKnee
  {
   OFFSET 0.000000 -40.546152 -0.001885
   CHANNELS 3 Yrotation Xrotation Zrotation
   JOINT RightAnkle
   {
    OFFSET 0.000000 -39.417092 -0.003189
    CHANNELS 3 Yrotation Xrotation Zrotation
    JOINT RightToe
    {
     OFFSET 0.000000 -7.579396 17.243563
     CHANNELS 3 Yrotation Xrotation Zrotation
     End Site
     {
      OFFSET 0.000000 -1.500329 6.694466
     }
    }
   }
  }
 }
 JOINT LeftHip
 {
  OFFSET 7.826875 0.019532 0.001973
  CHANNELS 3 Yrotation Xrotation Zrotation
  JOINT LeftKnee
  {
   OFFSET 0.000000 -40.546152 -0.001885
   CHANNELS 3 Yrotation Xrotation Zrotation
   JOINT LeftAnkle
   {
    OFFSET 0.000000 -39.417092 -0.003189
    CHANNELS 3 Yrotation Xrotation Zrotation
    JOINT LeftToe
    {
     OFFSET 0.000000 -7.579396 17.243563
     CHANNELS 3 Yrotation Xrotation Zrotation
     End Site
     {
      OFFSET 0.000000 -1.500329 6.694466
     }
    }
   }
  }
 }
}
MOTION
Frames: 13
Frame Time: 0.008333
0.000000 87.345680 0.000000 0.000000 -5.767889 0.000000 0.000000 11.653876 0.000000 0.000000 -5.885988 0.000000 0.000000 -0.000000 0.000000 0.000000 -0.000000 0.000000 0.000000 12.528808 0.000000 0.000000 0.711711 0.000000 0.000000 -0.000000 0.000000 0.000000 -0.000000 0.000000 2.309063 -0.000000 0.000000 -2.309063 -0.000000 -0.000000 0.000000 -0.000000 0.000000 0.000000 0.000000 0.000000 -2.309063 0.000000 0.000000 2.309063 -0.000000 0.000000 0.000000 8.520374 0.000000 0.000000 1.905768 0.000000 -0.000000 -4.658254 0.000000 0.000000 -0.000000 0.000000 0.000000 8.520374 0.000000 0.000000 1.905768 0.000000 -0.000000 -4.658254 0.000000 0.000000 -0.000000 0.000000
-2.296286 48.998638 -7.212643 4.734053 -21.311573 -1.726407 11.165174 9.368872 3.049787 6.445608 5.463662 1.207612 8.084127 6.805521 1.607286 6.445608 5.463662 1.207612 -0.359258 13.675954 -0.768075 -0.198942 -11.366359 -0.712512 12.970159 -8.792724 -9.268779 27.109205 -45.238330 67.408617 29.645456 22.781740 8.356064 -4.182284 -2.595432 -8.733151 -5.671209 -7.894117 7.869266 -22.559257 -44.504541 -68.229090 -38.058348 5.418860 -24.872000 -1.610328 -3.137854 22.171753 41.139621 -62.578053 -14.304914 120.997891 67.372762 143.247769 -0.123076 -24.902952 -6.730444 -0.155864 0.966555 -0.065401 44.633917 -85.181777 38.559061 -141.660702 61.657524 -102.394909 0.847181 -15.769728 -15.893615 -0.199039 -0.893760 -0.090873
-2.297477 48.995967 -7.213791 4.763050 -21.286458 -1.738368 11.163858 9.378838 3.047989 6.450890 5.465857 1.205828 8.090726 6.808274 1.605174 6.450890 5.465857 1.205828 -0.363793 13.684854 -0.765757 -0.204148 -11.357282 -0.709122 12.977728 -8.774648 -9.271915 27.085334 -45.233458 67.355156 29.610392 22.930243 8.361973 -4.187923 -2.524133 -8.699729 -5.677759 -7.882570 7.872485 -22.582113 -44.505465 -68.196616 -38.137686 5.427343 -24.852424 -1.647297 -3.124282 22.137544 41.161208 -62.592498 -14.348765 121.009681 67.370649 143.268639 -0.124149 -24.919281 -6.733637 -0.151937 0.977129 -0.062674 44.733013 -85.188470 38.415181 -141.654268 61.664049 -102.390877 0.854286 -15.770915 -15.906094 -0.195914 -0.896735 -0.089012
-2.299363 48.993209 -7.215050 4.784250 -21.260112 -1.752091 11.163846 9.385799 3.047455 6.455339 5.467424 1.203832 8.096274 6.810248 1.602772 6.455339 5.467424 1.203832 -0.361020 13.694323 -0.765094 -0.201439 -11.347624 -0.709078 12.983665 -8.761950 -9.275792 27.083248 -45.218875 67.295272 29.590471 23.164997 8.354261 -4.175686 -2.425085 -8.771067 -5.686641 -7.872423 7.872710 -22.624399 -44.492303 -68.143422 -38.233522 5.405145 -24.824613 -1.647950 -3.115607 22.045395 41.180190 -62.610162 -14.385018 121.014685 67.370157 143.280403 -0.120643 -24.934076 -6.736961 -0.151551 0.989445 -0.061609 44.818003 -85.201755 38.292591 -141.652129 61.667255 -102.388833 0.863219 -15.771166 -15.918628 -0.193477 -0.901346 -0.087763
-2.301523 48.990576 -7.216382 4.795462 -21.234426 -1.764780 11.165815 9.390076 3.047822 6.459438 5.468216 1.202033 8.101383 6.811253 1.600597 6.459438 5.468216 1.202033 -0.353628 13.706253 -0.766948 -0.193401 -11.335440 -0.712677 12.985089 -8.749014 -9.282219 27.113179 -45.196002 67.222948 29.572020 23.435875 8.320644 -4.137957 -2.339992 -8.903468 -5.697605 -7.862109 7.867863 -22.670655 -44.467739 -68.081121 -38.350129 5.360854 -24.795061 -1.579477 -3.107593 21.875244 41.200766 -62.629136 -14.415383 121.007347 67.368481 143.278205 -0.117885 -24.946954 -6.739244 -0.153429 1.002403 -0.062110 44.889353 -85.217750 38.192681 -141.654674 61.668051 -102.389301 0.873488 -15.770225 -15.931888 -0.191565 -0.908332 -0.086905
-2.303140 48.988188 -7.217863 4.801556 -21.210241 -1.773512 11.167325 9.393252 3.046176 6.462050 5.468365 1.200569 8.104631 6.811454 1.598807 6.462050 5.468365 1.200569 -0.342489 13.721519 -0.771801 -0.180826 -11.319829 -0.720227 12.984097 -8.729902 -9.291924 27.176593 -45.165051 67.133114 29.559627 23.666151 8.267354 -4.074141 -2.286724 -9.051453 -5.705870 -7.851238 7.856837 -22.701201 -44.436917 -68.022432 -38.486568 5.308734 -24.781491 -1.447128 -3.099839 21.646105 41.225673 -62.646005 -14.447588 120.996444 67.365529 143.272832 -0.117810 -24.958427 -6.740648 -0.157166 1.013916 -0.063776 44.975799 -85.230672 38.082290 -141.661584 61.668839 -102.394832 0.885743 -15.770953 -15.943059 -0.190692 -0.914911 -0.087342
-2.304722 48.986075 -7.219637 4.805856 -21.186928 -1.782375 11.167050 9.394678 3.044401 6.463279 5.467862 1.198887 8.106140 6.810851 1.596711 6.463279 5.467862 1.198887 -0.328404 13.739961 -0.777089 -0.165113 -11.300967 -0.728894 12.982517 -8.703029 -9.301857 27.260529 -45.127376 67.031555 29.564432 23.804995 8.210948 -3.992680 -2.266327 -9.187504 -5.709926 -7.839296 7.843301 -22.705591 -44.408167 -67.976522 -38.633931 5.262547 -24.796564 -1.271195 -3.087732 21.386999 41.249632 -62.662306 -14.477947 120.986750 67.364295 143.269199 -0.116001 -24.968486 -6.742338 -0.159792 1.024366 -0.065663 45.043129 -85.242152 37.993107 -141.665883 61.670423 -102.399791 0.898474 -15.772864 -15.952995 -0.190082 -0.919558 -0.088170
-2.307121 48.984193 -7.221889 4.807047 -21.163145 -1.795647 11.166818 9.392829 3.045357 6.464051 5.466285 1.196637 8.107063 6.808917 1.593880 6.464051 5.466285 1.196637 -0.313672 13.761066 -0.780698 -0.149105 -11.279389 -0.735977 12.979942 -8.670207 -9.308377 27.339605 -45.087949 66.935247 29.592662 23.851831 8.168378 -3.909183 -2.266339 -9.296794 -5.708927 -7.826245 7.831646 -22.690054 -44.391498 -67.942896 -38.782256 5.232323 -24.839758 -1.060534 -3.071669 21.122880 41.269996 -62.681423 -14.501249 120.977364 67.368193 143.266722 -0.108359 -24.976104 -6.746141 -0.158851 1.035069 -0.066431 45.071203 -85.258655 37.946066 -141.671042 61.673624 -102.404632 0.909094 -15.774445 -15.963395 -0.190166 -0.923720 -0.088938
-2.309983 48.982442 -7.224860 4.805346 -21.137462 -1.810967 11.166858 9.387979 3.047911 6.464058 5.464060 1.193991 8.107017 6.806185 1.590528 6.464058 5.464061 1.193991 -0.300007 13.783195 -0.784415 -0.134174 -11.256752 -0.742939 12.977690 -8.636620 -9.312380 27.390835 -45.054198 66.859446 29.644966 23.840554 8.153397 -3.839474 -2.275008 -9.373637 -5.701547 -7.814416 7.819512 -22.673610 -44.390107 -67.907638 -38.926349 5.220537 -24.902193 -0.817290 -3.058542 20.872963 41.290919 -62.702819 -14.523899 120.965728 67.375841 143.262838 -0.095295 -24.981670 -6.752180 -0.158363 1.046341 -0.066705 45.112961 -85.283035 37.886628 -141.686431 61.677762 -102.415543 0.916129 -15.772706 -15.973605 -0.191401 -0.931349 -0.089949
-2.312982 48.980878 -7.228355 4.799034 -21.111106 -1.825757 11.167051 9.383813 3.051136 6.463824 5.461887 1.190498 8.106658 6.803533 1.586116 6.463824 5.461887 1.190498 -0.287491 13.804164 -0.789158 -0.120198 -11.235279 -0.750707 12.976209 -8.608918 -9.314872 27.403742 -45.033245 66.812978 29.718339 23.813116 8.167989 -3.794064 -2.289152 -9.418448 -5.693273 -7.806775 7.806860 -22.672842 -44.397666 -67.855313 -39.066719 5.221990 -24.970043 -0.547586 -3.049237 20.641001 41.313201 -62.724273 -14.545672 120.941728 67.382011 143.245110 -0.079050 -24.987902 -6.759962 -0.160059 1.059518 -0.066999 45.167849 -85.313896 37.818687 -141.706041 61.678709 -102.426928 0.919441 -15.764904 -15.984718 -0.189323 -0.944091 -0.089480
-2.315931 48.979589 -7.232067 4.790099 -21.085743 -1.839794 11.166580 9.381910 3.053596 6.463747 5.460035 1.186207 8.106486 6.801296 1.580712 6.463747 5.460036 1.186207 -0.276397 13.823034 -0.794096 -0.107645 -11.215942 -0.758354 12.973581 -8.588908 -9.314653 27.378939 -45.026650 66.791811 29.809315 23.799842 8.208951 -3.775606 -2.302680 -9.433173 -5.690533 -7.803866 7.794595 -22.697990 -44.405112 -67.775579 -39.206550 5.231648 -25.035403 -0.264243 -3.038879 20.423473 41.334789 -62.744208 -14.564904 120.904956 67.385125 143.213031 -0.062492 -24.995461 -6.769116 -0.161572 1.073831 -0.066865 45.221050 -85.346374 37.756079 -141.723605 61.676299 -102.435058 0.922610 -15.754269 -15.997327 -0.184821 -0.958334 -0.087115
-2.318386 48.978546 -7.235958 4.783149 -21.061283 -1.852233 11.163991 9.379663 3.052281 6.463017 5.458720 1.182123 8.105504 6.799728 1.575568 6.463017 5.458720 1.182123 -0.266136 13.840291 -0.799655 -0.095810 -11.198242 -0.766458 12.970172 -8.572371 -9.312393 27.326069 -45.031435 66.783005 29.912254 23.809551 8.270210 -3.777302 -2.306654 -9.420576 -5.693585 -7.804136 7.781663 -22.753360 -44.403770 -67.665608 -39.349075 5.244635 -25.095919 0.019214 -3.022383 20.222974 41.356300 -62.762187 -14.585546 120.868389 67.387216 143.179686 -0.048995 -25.003075 -6.773880 -0.166874 1.086622 -0.069162 45.297551 -85.375897 37.667427 -141.742672 61.674929 -102.445108 0.928659 -15.744183 -16.010318 -0.183166 -0.971481 -0.084607
-2.320264 48.977770 -7.239786 4.777460 -21.038794 -1.862569 11.160218 9.377616 3.047771 6.461788 5.458170 1.178171 8.103904 6.799117 1.570597 6.461788 5.458170 1.178171 -0.255457 13.855800 -0.806343 -0.083289 -11.182314 -0.775821 12.965846 -8.557846 -9.309573 27.260666 -45.043928 66.777656 30.020517 23.831751 8.341899 -3.790873 -2.301100 -9.384199 -5.701459 -7.807269 7.771583 -22.835766 -44.390760 -67.531832 -39.495483 5.253505 -25.147758 0.298931 -3.000207 20.041579 41.378595 -62.777049 -14.606672 120.835097 67.389510 143.148293 -0.039600 -25.011624 -6.772241 -0.176203 1.098543 -0.074472 45.378615 -85.401070 37.572600 -141.763986 61.675759 -102.459040 0.935783 -15.735207 -16.022469 -0.184312 -0.983670 -0.082876
